<svg width="96" height="96" viewBox="0 0 96 96" fill="none" xmlns="http://www.w3.org/2000/svg">
<rect width="96" height="96" rx="48" fill="#F0F6FE"/>
<path d="M64.0612 39.4388L53.5613 28.9388C53.4218 28.7995 53.2564 28.6891 53.0743 28.6138C52.8922 28.5385 52.697 28.4998 52.5 28.5H34.5C33.7044 28.5 32.9413 28.8161 32.3787 29.3787C31.8161 29.9413 31.5 30.7044 31.5 31.5V64.5C31.5 65.2957 31.8161 66.0587 32.3787 66.6213C32.9413 67.1839 33.7044 67.5 34.5 67.5H61.5C62.2956 67.5 63.0587 67.1839 63.6213 66.6213C64.1839 66.0587 64.5 65.2957 64.5 64.5V40.5C64.5002 40.303 64.4615 40.1078 64.3862 39.9257C64.3109 39.7436 64.2005 39.5782 64.0612 39.4388ZM54 33.6206L59.3794 39H54V33.6206ZM61.5 64.5H34.5V31.5H51V40.5C51 40.8978 51.158 41.2794 51.4393 41.5607C51.7206 41.842 52.1022 42 52.5 42H61.5V64.5ZM53.5613 49.0613L50.1206 52.5L53.5613 55.9387C53.7006 56.0781 53.8112 56.2436 53.8866 56.4257C53.962 56.6077 54.0008 56.8029 54.0008 57C54.0008 57.1971 53.962 57.3923 53.8866 57.5743C53.8112 57.7564 53.7006 57.9219 53.5613 58.0613C53.4219 58.2006 53.2564 58.3112 53.0743 58.3866C52.8923 58.462 52.6971 58.5008 52.5 58.5008C52.3029 58.5008 52.1077 58.462 51.9257 58.3866C51.7436 58.3112 51.5781 58.2006 51.4387 58.0613L48 54.6206L44.5613 58.0613C44.4219 58.2006 44.2564 58.3112 44.0743 58.3866C43.8923 58.462 43.6971 58.5008 43.5 58.5008C43.3029 58.5008 43.1077 58.462 42.9257 58.3866C42.7436 58.3112 42.5781 58.2006 42.4387 58.0613C42.2994 57.9219 42.1888 57.7564 42.1134 57.5743C42.038 57.3923 41.9992 57.1971 41.9992 57C41.9992 56.8029 42.038 56.6077 42.1134 56.4257C42.1888 56.2436 42.2994 56.0781 42.4387 55.9387L45.8794 52.5L42.4387 49.0613C42.1573 48.7798 41.9992 48.398 41.9992 48C41.9992 47.602 42.1573 47.2202 42.4387 46.9387C42.7202 46.6573 43.102 46.4992 43.5 46.4992C43.898 46.4992 44.2798 46.6573 44.5613 46.9387L48 50.3794L51.4387 46.9387C51.5781 46.7994 51.7436 46.6888 51.9257 46.6134C52.1077 46.538 52.3029 46.4992 52.5 46.4992C52.6971 46.4992 52.8923 46.538 53.0743 46.6134C53.2564 46.6888 53.4219 46.7994 53.5613 46.9387C53.7006 47.0781 53.8112 47.2436 53.8866 47.4257C53.962 47.6077 54.0008 47.8029 54.0008 48C54.0008 48.1971 53.962 48.3923 53.8866 48.5743C53.8112 48.7564 53.7006 48.9219 53.5613 49.0613Z" fill="#0D6EFD"/>
</svg>
